{"title":"Christinamodel HD-BJ","uid":8133433,"size":943290344,"categoryP":"porn","categoryS":"hd___movies","magnet":"?xt=urn:btih:9fd6d0293c95b91c19cc79c2080b9c7413a1d158&amp;dn=Christinamodel+HD-BJ&amp;tr=udp%3A%2F%2Ftracker.openbittorrent.com%3A80&amp;tr=udp%3A%2F%2Fopen.demonii.com%3A1337&amp;tr=udp%3A%2F%2Ftracker.coppersurfer.tk%3A6969&amp;tr=udp%3A%2F%2Fexodus.desync.com%3A6969","seeders":2,"leechers":0,"uploader":"FatFreddy2013","files":-1,"time":1360667079,"description":"High Definition Movie: HD - BJ.avi\n\nMembers Video Posted 2-12-13\n\nScreens:\n &lt;a href=&quot;\nhttp://bayimg.com/hajgJaAei&quot; rel=&quot;nofollow&quot; target=&quot;_NEW&quot;&gt;\nhttp://bayimg.com/hajgJaAei&lt;/a&gt;\n\nEnjoy :-)\n\nMediainfo:\nHD-BJ.avi\nFormat                                   : DivX\nFormat/Info                              : Hack of AVI\nFile size                                : 900 MiB\nDuration                                 : 20mn 20s\nOverall bit rate                         : 6 185 Kbps\n\nVideo\nID                                       : 0\nFormat                                   : MPEG-4 Visual\nFormat settings, BVOP                    : No\nFormat settings, QPel                    : No\nFormat settings, GMC                     : No warppoints\nFormat settings, Matrix                  : Default (H.263)\nCodec ID                                 : DX50\nCodec ID/Hint                            : DivX 5\nDuration                                 : 20mn 20s\nBit rate                                 : 5 982 Kbps\nWidth                                    : 1 280 pixels\nHeight                                   : 720 pixels\nDisplay aspect ratio                     : 16:9\nFrame rate                               : 29.970 fps\nColor space                              : YUV\nChroma subsampling                       : 4:2:0\nBit depth                                : 8 bits\nScan type                                : Progressive\nCompression mode                         : Lossy\nBits/(Pixel*Frame)                       : 0.217\nStream size                              : 870 MiB (97%)\nTitle                                    : Video\nWriting library                          : DivX 6.6.1.4\n\nAudio\nID                                       : 1\nFormat                                   : MPEG Audio\nFormat version                           : Version 1\nFormat profile                           : Layer 3\nMode                                     : Joint stereo\nMode extension                           : MS Stereo\nCodec ID                                 : 55\nCodec ID/Hint                            : MP3\nDuration                                 : 20mn 20s\nBit rate mode                            : Constant\nBit rate                                 : 192 Kbps\nChannel(s)                               : 2 channels\nSampling rate                            : 48.0 KHz\nCompression mode                         : Lossy\nStream size                              : 27.9 MiB (3%)\nAlignment                                : Split accross interleaves\nInterleave, duration                     : 33 ms (1.00 video frame)\nInterleave, preload duration             : 500 ms\nTitle                                    : Audio\nWriting library                          : LAME3.96\n\n\n\n","torrent":{"xt":"urn:btih:9fd6d0293c95b91c19cc79c2080b9c7413a1d158","amp;dn":"Christinamodel+HD-BJ","amp;tr":["udp%3A%2F%2Ftracker.openbittorrent.com%3A80","udp%3A%2F%2Fopen.demonii.com%3A1337","udp%3A%2F%2Ftracker.coppersurfer.tk%3A6969","udp%3A%2F%2Fexodus.desync.com%3A6969"],"infoHash":"9fd6d0293c95b91c19cc79c2080b9c7413a1d158","infoHashBuffer":{"type":"Buffer","data":[159,214,208,41,60,149,185,28,25,204,121,194,8,11,156,116,19,161,209,88]},"announce":[],"urlList":[]}}